<?xml version="1.0" encoding="utf-8" ?><svg xmlns="http://www.w3.org/2000/svg" xmlns:xlink="http://www.w3.org/1999/xlink" width="1024" height="547" viewBox="0 0 1024 547"><path fill="#020202" transform="scale(1.07563 1.07677)" d="M630.437 179.695L630.098 179.427C620.421 171.943 577.09 166.212 564.334 168.34C545.523 171.479 524.955 174.796 505.964 177.853L379.936 198.147C318.301 207.911 256.571 217.058 194.753 225.587L132.767 234.217C124.658 235.415 116.702 237.034 108.535 237.803C105.832 238.057 103.536 238.929 100.684 238.731C102.262 237.673 125.938 233.983 129.575 233.279C238.387 211.774 347.693 192.847 457.401 176.515L518.798 166.762C534.09 164.211 551.623 161.154 567.047 159.659C574.675 158.92 596.022 162.131 604.506 163.226C608.99 163.805 616.739 166.277 621.435 166.982C612.644 162.805 608.7 162.098 599.03 160.078C610.209 160.118 628.075 161.813 639.439 163.246C667.326 167.303 695.727 169.906 723.179 176.475C732.291 178.655 752.9 182.247 760.863 186.703C781.061 198.003 801.207 212.789 817.394 229.257C825.747 237.755 831.571 243.267 843.321 245.487C853.438 248.516 878.829 260.073 886.048 267.641C892.551 274.458 899.112 299.987 903.488 309.297C905.871 314.367 905.24 338.001 899.695 341.576C896.947 344.073 881.349 341.972 876.521 342.026C874.21 341.103 871.475 340.897 870.34 340.215C872.647 334.432 872.056 338.732 876.371 336.332C883.383 336.858 889.085 336.99 896.109 336.683C898.633 329.864 898.375 326.057 898.913 318.982C896.239 318.47 892.758 318.312 889.988 318.105L886.999 322.07C876.297 322.144 863.985 320.445 853.15 319.801C847.189 319.446 839.68 318.817 833.782 317.983C831.372 317.643 825.933 313.022 822.976 312.542C818.065 311.746 811.686 311.431 806.845 310.9C798.2 309.952 763.574 305.146 756.998 309.19C756.147 311.617 759.137 317.753 760.226 320.253C762.897 326.389 765.293 328.62 771.368 330.95C768.138 335.518 767.385 332.198 764.808 334.548C764.474 335.665 764.491 335.729 764.572 336.908C763.756 337.603 763.619 337.548 762.496 337.646C756.993 337.555 750.783 337.626 745.377 336.957C737.804 302.642 705.872 268.996 669.086 288.856C662.437 292.446 656.383 291.943 649.107 292.178C639.57 292.482 630.03 292.693 620.489 292.813C607.946 293.081 590.826 294.426 578.428 293.595C580.308 292.16 582.066 290.645 583.797 289.036C593.304 280.198 603.278 271.668 612.599 262.646L557.872 203.27C551.563 196.43 539.456 184.801 534.432 178.135C541.665 176.46 553.428 174.518 560.833 173.811C581.574 171.832 611.243 173.12 630.437 179.695ZM820.798 243.014L827.602 243.256C822.18 239.65 814.378 231.695 808.837 227.18C795.446 216.271 781.836 205.097 767.099 196.032C763.338 193.719 760.637 193.473 757.117 191.992C743.638 186.322 731.323 186.028 717.837 183.384C699.787 179.845 682.273 176.103 663.651 176.383C661.579 176.414 655.154 176.084 653.445 176.324C651.107 176.615 649.107 176.85 646.792 177.358C651.246 182.332 657.288 186.6 662.594 190.722C667.802 194.781 672.929 198.941 677.973 203.2C683.983 208.231 703.359 227.631 709.528 229.654C717.75 232.351 736.696 233.347 746.392 234.487L794.064 239.792C803.684 240.889 810.796 242.225 820.798 243.014ZM694.858 253.013C699.638 249.134 699.126 246.693 694.966 242.384C676.03 222.767 658.092 200.893 634.701 186.412C628.478 182.629 604.31 178.038 597.086 177.579C595.664 177.5 594.24 177.466 592.816 177.479C591.558 197.646 590.404 214.553 590.8 234.807C599.422 235.807 608.15 238.445 616.702 240.004C633.933 243.146 651.012 247.43 668.266 250.361C675.756 251.633 687.839 256.329 694.858 253.013ZM777.208 274.135C780.441 274.244 783.041 274.744 786.099 275.742C791.494 276.028 802.711 277.433 807.32 279.62C813.5 282.552 819.39 290.939 824.341 295.621C827.159 298.285 831.354 301.514 834.476 303.88C842.076 304.064 882.585 308.476 886.09 305.278C889.048 302.578 888.364 295.812 888.354 292.057C888.343 287.927 887.802 284.641 884.782 281.608C879.201 280.012 870.226 279.192 864.148 278.471C850.575 276.805 836.956 275.529 823.309 274.644C817.211 274.304 810.499 274.586 804.532 273.799C797.921 272.926 790.838 270.413 784.335 268.956C767.256 265.13 745.906 258.194 728.813 256.273C730.521 264.366 742.234 282.983 749.336 287.525C756.989 292.419 812.312 299.061 824.589 300.426C815.408 294.788 801.805 293.393 790.935 290.41C791.378 289.82 791.222 290.171 791.103 289.202C789.676 288 786.817 286.89 785.023 286.095C787.637 286.78 790.856 287.874 793.488 288.693C790.369 286.682 785.815 284.072 783.233 281.701L783.139 281.077C781.829 280.203 780.405 280.268 778.818 280.159L777.63 279.983L777.208 274.135ZM729.684 245.558C730.74 247.096 753.406 256.897 756.364 257.02C753.074 254.652 733.534 246.058 729.684 245.558ZM808.42 244.078C811.465 245.712 851.368 255.678 855.289 256.093C838.069 244.028 826.999 245.911 808.42 244.078Z"/><path fill="#D1CEC9" fill-opacity="0.78039217" transform="scale(1.07563 1.07677)" d="M689.043 199.272L694.785 202.582C696.738 203.328 699.641 205.097 701.22 206.468L701.422 207.274C703.696 208.333 705.383 207.277 707.017 205.624C715.805 209.865 726.099 216.8 733.755 222.935L733.077 223.131C729.268 221.417 724.461 223.741 719.371 222.112C717.703 221.579 714.563 221.038 712.948 220.013C709.051 217.541 690.905 202.094 689.043 199.272Z"/><path fill="#D1CEC9" fill-opacity="0.75686276" transform="scale(1.07563 1.07677)" d="M697.849 201.04C700.961 202.455 704.019 203.984 707.017 205.624C705.383 207.277 703.696 208.333 701.422 207.274L701.22 206.468C701.756 206.23 702.388 205.871 702.918 205.591C702.302 203.813 698.871 204.111 697.849 201.04Z"/><path fill="#F8F7F7" fill-opacity="0.019607844" transform="scale(1.07563 1.07677)" d="M689.043 199.272L689.32 197.845C691.406 197.443 692.616 198.127 694.471 198.99L694.921 199.637L696.425 201.766L696.165 202.294L694.785 202.582L689.043 199.272Z"/><path fill="#D1CEC9" fill-opacity="0.51372552" transform="scale(1.07563 1.07677)" d="M694.921 199.637C695.609 199.956 697.291 200.68 697.849 201.04C698.871 204.111 702.302 203.813 702.918 205.591C702.388 205.871 701.756 206.23 701.22 206.468C699.641 205.097 696.738 203.328 694.785 202.582L696.165 202.294L696.425 201.766L694.921 199.637Z"/><path fill="#020202" transform="scale(1.07563 1.07677)" d="M639.69 215.336C653.472 214.934 659.419 212.141 665.212 226.342C662.862 226.035 660.036 225.942 657.638 225.801C651.801 225.184 645.732 224.404 639.88 224.439L637.36 229.93C637.21 225.17 637.099 219.549 639.69 215.336Z"/><path fill="#F8F7F7" transform="scale(1.07563 1.07677)" d="M663.869 276.666C681.296 274.955 703.108 272.817 720.205 277.242C712.514 277.232 704.824 277.322 697.136 277.512C688.899 277.795 678.202 278.403 670.07 277.896C668.013 277.482 665.525 277.821 663.869 276.666Z"/><path fill="#A5A3A2" transform="scale(1.07563 1.07677)" d="M777.208 274.135C780.441 274.244 783.041 274.744 786.099 275.742C786.781 276.675 789.818 277.248 791.22 277.646C792.45 278.905 793.554 280.091 794.933 281.19C791.591 281.119 785.189 280.065 783.233 281.701L783.139 281.077C781.829 280.203 780.405 280.268 778.818 280.159L777.63 279.983L777.208 274.135Z"/><path fill="#A5A3A2" fill-opacity="0.15294118" transform="scale(1.07563 1.07677)" d="M778.818 280.159C780.405 280.268 781.829 280.203 783.139 281.077L783.233 281.701C785.815 284.072 790.369 286.682 793.488 288.693C790.856 287.874 787.637 286.78 785.023 286.095C786.817 286.89 789.676 288 791.103 289.202C791.222 290.171 791.378 289.82 790.935 290.41C786.944 290.163 783.969 288.763 779.781 289.215C783.006 284.821 781.314 283.837 778.818 280.159Z"/><path fill="#F8F7F7" fill-opacity="0.074509807" transform="scale(1.07563 1.07677)" d="M729.684 245.558C733.534 246.058 753.074 254.652 756.364 257.02C753.406 256.897 730.74 247.096 729.684 245.558Z"/><path fill="#D1CEC9" fill-opacity="0.050980393" transform="scale(1.07563 1.07677)" d="M777.63 279.983L778.818 280.159C781.314 283.837 783.006 284.821 779.781 289.215C777.198 287.016 777.776 283.308 777.63 279.983Z"/><path fill="#383738" transform="scale(1.07563 1.07677)" d="M657.595 278.046C656.481 278.31 645.547 278.348 644.432 277.807C647.795 277.476 653.419 276.747 656.584 277.048L656.344 277.709L657.595 278.046Z"/><path fill="#D1CEC9" transform="scale(1.07563 1.07677)" d="M656.584 277.048C659.015 276.981 661.444 276.854 663.869 276.666C665.525 277.821 668.013 277.482 670.07 277.896C665.912 277.924 661.753 277.974 657.595 278.046L656.344 277.709L656.584 277.048Z"/><path fill="#020202" transform="scale(1.07563 1.07677)" d="M327.935 18.3796C332.662 19.2652 345.588 17.988 351.388 18.2838C377.71 19.6267 406.595 16.593 432.515 19.0487C432.723 27.9971 434.598 41.5296 435.461 50.938L443.543 132.337C444.547 142.543 446.222 150.148 446.493 160.685C444.604 161.04 441.883 161.358 439.936 161.539C424.608 162.971 408.59 166.362 393.299 167.298C391.866 158.647 392.234 146.464 390.354 137.832L358.41 137.765L328.181 137.681C323.989 145.21 313.104 163.408 308.026 169.888C289.984 170.105 271.295 169.588 253.543 169.912C255.764 165.207 259.06 160.545 261.814 156.078L279.652 127.44L341.358 29.5797C339.001 27.9486 329.693 20.448 327.935 18.3796ZM349.463 103.172L357.72 103.306C365.329 103.575 380.012 104.054 387.193 103.486C386.144 88.6579 382.977 72.3596 381.401 57.436C381.255 56.0517 380.807 55.0623 379.811 54.1468C374.257 63.8605 368.013 73.3993 362.019 82.8738C359.194 87.3387 352.434 99.4951 349.463 103.172Z"/><path fill="#020202" transform="scale(1.07563 1.07677)" d="M528.674 17.918C548.689 16.9067 571.648 17.9615 591.862 17.7797C598.078 17.7238 619.666 17.7141 624.348 19.0348C624.879 20.4994 617.042 49.5641 615.775 53.4827C608.31 54.1688 595.285 53.8137 587.489 53.8115L537.216 53.796C534.153 53.7937 518.644 53.4741 516.571 54.0496C513.648 54.8751 511.187 56.854 509.754 59.5312C507.278 64.1549 508.011 70.2722 513.839 71.7532C520.252 73.3826 527.317 72.608 533.741 73.2385C553.366 75.1647 585.568 73.129 602.611 82.3298C607.9 85.1793 611.819 90.0375 613.484 95.809C617.017 108.149 612.132 129.397 605.948 140.471C585.852 143.786 564.862 145.419 544.272 148.585L493.898 154.801C485.113 155.925 469.781 158.337 461.349 158.509C459.251 148.408 457.982 138.876 457.935 128.525C465.12 127.777 478.743 128.212 486.337 128.184C508.293 128.244 530.08 128.114 552.051 128.399C561.179 128.518 563.365 122.671 563.021 114.303C562.694 106.339 546.88 107.096 541.266 106.758C532.987 106.188 524.701 105.726 516.411 105.372C497.41 104.501 458.454 105.529 457.533 75.6521C457.299 68.076 459.129 63.4906 460.735 56.3509C468.826 20.3908 497.071 18.7398 528.674 17.918Z"/><path fill="#020202" transform="scale(1.07563 1.07677)" d="M508.42 199.04C511.521 198.283 517.527 200.042 520.161 201.933C525.06 205.449 527.945 211.353 528.919 217.205C531.19 230.847 528.413 251.28 512.823 255.68C509.324 256.644 502.642 254.156 498.682 254.431C489.179 255.091 479.639 256.329 470.133 257.052C462.578 257.995 454.519 257.118 447.032 257.975C422.742 260.756 398.46 263.404 374.125 265.792C369.253 266.496 364.697 268.399 359.817 269.118C341.611 271.801 322.41 273.017 304.368 276.138C302.674 276.395 300.793 276.639 299.113 276.759C272.055 279.052 277.655 235.837 295.723 230.145C307.1 226.561 322.788 225.893 334.928 223.987C361.261 219.879 387.652 216.15 414.093 212.801C431.559 210.538 449.215 208.778 466.568 205.796C480.046 203.48 495.275 202.25 508.42 199.04ZM348.702 247.601C351.142 234.455 356.483 228.705 369.569 226.221C368.242 227.283 366.675 228.475 365.413 229.576C375.287 229.369 383.038 227.17 392.25 226.524C412.9 225.075 435.86 219.494 456.213 218.666C450.842 223.441 448.982 227.858 448.521 235.037C447.904 244.637 449.568 250.278 457.145 256.421C470.1 254.342 487.294 252.498 500.745 251.087C496.011 244.75 495.315 235.411 495.371 227.731C488.761 228.026 461.438 233.602 457.665 229.893C456.917 229.157 456.995 228.706 456.909 227.715C458.536 223.461 463.982 223.633 467.876 223.098C475.656 222.028 483.831 221.687 491.467 219.766C492.42 216.124 493.987 211.735 496.802 209.176C497.929 208.152 498.683 207.9 498.426 207.069L498.034 207.137C474.961 207.888 451.396 212.266 428.671 214.892C395.202 218.553 361.829 223.044 328.583 228.361C319.251 229.947 310.393 231.461 300.745 233.167C286.179 235.743 279.322 258.75 289.034 269.105C293 273.333 300.13 272.476 305.427 272.263C323.634 269.972 342.841 269.116 360.934 266.677C349.976 262.606 348.429 259.115 348.702 247.601ZM440.969 239.082C419.724 241.11 398.53 243.632 377.403 246.645C370.022 247.629 362.495 248.022 355.201 249.35C355.397 251.145 355.62 252.965 355.713 254.766C357.52 254.546 359.891 254.184 361.66 254.078C378.997 251.88 396.17 250.148 413.55 248.404C424.249 247.33 434.988 245.466 445.762 244.662C445.436 242.704 445.146 240.74 444.892 238.771L440.969 239.082ZM513.437 208.655C508.348 210.88 506.153 212.535 503.898 218.143C501.179 224.904 501.477 238.356 504.251 244.954C507.281 247.587 508.205 248.559 512.202 249.331C516.626 247.588 519.052 245.128 520.807 240.601C524.367 231.421 526.782 210.72 513.437 208.655Z"/><path fill="#020202" transform="scale(1.07563 1.07677)" d="M331.517 239.09C334.958 238.617 336.691 239.048 338.835 241.878C339.979 247.976 325.861 247.8 321.965 248.182C314.972 248.869 307.825 249.197 300.884 250.267C297.92 250.617 294.82 249.711 294.066 246.538C295.565 241.636 307.841 241.666 312.32 241.243C318.73 240.627 325.13 239.909 331.517 239.09Z"/><path fill="#020202" transform="scale(1.07563 1.07677)" d="M824.193 445.768C826.235 444.396 825.377 441.385 827.852 440.578C829.143 441.129 828.696 440.751 829.447 442.223C829.213 443.949 828.861 445.255 829.566 446.833C828.664 452.789 826.067 462.583 824.66 468.645C823.57 473.34 820.803 485.276 819.251 489.258C804.548 487.306 789.855 484.774 775.135 483.191C688.631 473.889 601.166 470.532 514.213 468.874C404.504 466.577 294.746 468.406 185.174 474.358C149.811 476.33 114.497 479.081 79.2551 482.609C66.3111 484.018 53.2749 485.99 40.3286 487.468C34.0385 488.186 26.8714 489.346 20.6071 489.557C23.4709 478.907 25.8976 469.592 29.365 459.142C31.0459 459.071 33.1937 458.813 34.6901 459.442L35.169 460.05C34.0268 466.72 31.9867 473.358 30.9943 479.849L31.557 480.419C37.5489 482.398 89.0885 475.741 99.6428 475.041C137.285 472.543 175.435 468.39 213.118 465.982C236.099 464.514 258.987 463.968 281.898 462.81C349.974 459.94 418.126 459.331 486.242 460.983C541.615 461.899 596.966 463.875 652.263 466.909C686.907 469.065 722.053 472.778 756.705 475.521C774.411 476.923 796.458 480.433 813.897 480.471C817.572 469.682 820.412 457.191 824.193 445.768Z"/><path fill="#020202" transform="scale(1.07563 1.07677)" d="M800.665 366.039C803.511 365.883 809.239 365.272 811.626 366.625C814.134 371.219 810.6 383.15 809.669 388.317L804.362 419.014C801.956 432.309 800.059 446.253 798.431 459.674C798.243 461.227 797.858 462.52 796.561 463.492C795.651 463.833 777.258 461.519 776.43 458.555C775.745 456.102 776.443 453.533 776.996 451.15C781.236 432.879 784.457 414.383 788.572 396.11C780.819 406.977 769.276 429.279 762.236 441.535C757.596 441.782 750.771 441.62 746.178 441.215C744.649 429.955 744.484 418.527 743.411 407.213C743.02 403.093 743.178 399.01 742.642 394.891C740.359 396.835 729.462 447.315 726.824 454.077C719.889 454.027 712.956 453.819 706.031 453.45C709.814 443.918 711.714 434.073 714.401 424.23C716.404 417.399 719.339 410.894 720.617 403.855C722.113 395.621 724.331 387.54 726.135 379.387C727.021 375.381 727.195 370.357 727.487 366.235C736.27 365.981 748.354 366.066 757.087 366.515C758.602 378.904 759.345 397.273 762.019 408.4C768.872 401.029 779.881 376.367 787.049 366.434L800.665 366.039Z"/><path fill="#020202" transform="scale(1.07563 1.07677)" d="M98.9698 357.675C104.546 357.215 112.452 357.409 118.181 357.4C124.796 357.389 133.068 357.187 139.549 357.702C136.883 364.918 136.14 371.023 132.159 377.937C123.425 377.732 105.699 379.038 97.0242 379.82C95.5475 384.601 94.2249 391.28 92.947 396.321C101.573 396.895 111.831 395.836 120.014 396.998C118.373 403.494 116.115 409.997 112.845 415.856C104.675 416.177 95.6928 416.497 87.6368 417.664C85.8908 422.574 84.3725 430.761 83.3183 435.985C91.8967 436.254 103.808 435.044 112.79 434.551L121.182 434.566C114.612 455.704 121.973 455.268 98.9033 457.386C88.6398 458.333 78.3861 459.383 68.1437 460.536C63.5042 461.049 55.4145 461.585 51.2342 463.101C56.1378 442.27 62.8515 421.672 67.0635 400.517C69.6621 387.466 75.3909 372.48 76.486 359.163C83.2423 358.27 91.9737 358.075 98.9698 357.675Z"/><path fill="#020202" transform="scale(1.07563 1.07677)" d="M568.924 232.097C578.087 241.184 586.789 250.724 594.997 260.683C591.565 264.654 582.631 271.715 578.214 275.427C566.461 285.306 554.781 295.253 543.399 305.569C539.105 309.461 532.87 313.796 529.096 317.935C530.958 314.954 542.582 289.909 542.387 287.41C540.548 286.085 518.626 288.338 514.667 288.497L401.231 292.625C391.187 292.95 381.216 293.257 371.166 293.677C362.54 294.037 353.711 293.436 345.085 294.797C347.327 296.416 348.365 297.244 350.37 299.173C339.587 293.373 334.077 294.175 322.268 294.622C313.377 294.946 304.489 295.354 295.605 295.846C291.463 296.072 284.303 296.69 280.43 296.577L276.58 296.349L276.28 295.753C284.378 294.594 293.771 294.438 302.031 293.836L350.403 289.938C373.378 287.655 396.333 285.184 419.267 282.524L491.785 275.259C502.254 274.19 512.743 273.317 523.245 272.641C530.461 272.118 541.496 271.347 548.598 269.882C562.154 258.61 574.74 251.661 568.924 232.097Z"/><path fill="#020202" transform="scale(1.07563 1.07677)" d="M173.726 364.57C184.179 365.18 191.038 365.847 201.427 368.486C200.097 373.797 197.083 379.896 194.421 384.688C191.121 384.39 156.67 379.152 158.806 393.112C159.969 400.716 183.602 398.419 189.391 405.562C197.133 415.113 191.972 433.534 183.557 441.376C173.184 451.124 163.02 455.123 148.924 455.048C139.171 454.928 130.16 454.867 120.466 453.892C124.521 448.26 129.145 437.821 132.269 434.149C140.259 434.06 161.607 438.116 167.033 431.083C176.685 417.727 156.425 418.577 148.734 416.805C133.086 413.2 134.136 400.868 137.011 388.289C137.897 384.412 142.122 378.701 144.586 375.503C151.08 367.073 163.873 365.477 173.726 364.57Z"/><path fill="#020202" transform="scale(1.07563 1.07677)" d="M287.115 365.523C294.554 365.443 302.432 365.319 309.82 365.95C310.887 371.967 310.474 378.65 310.633 384.827L311.549 420.048C311.764 429.041 313.155 438.227 313.392 447.063L291.237 447.105C290.959 442.493 290.906 438.4 290.497 433.679C284.179 433.418 276.954 432.696 270.758 433.304C267.423 433.631 267.196 433.841 265.476 436.11C263.345 440.038 260.65 445.181 257.933 448.615C251.972 448.938 244.462 448.772 238.403 448.775L281.973 370.173C283.622 367.254 284.161 366.343 287.115 365.523ZM277.108 416.865C281.443 417.36 285.639 417.227 289.981 416.833C290.186 412.388 291.597 390.566 290.784 387.493C288.415 391.961 276.264 413.441 276.796 416.621L277.108 416.865Z"/><path fill="#020202" transform="scale(1.07563 1.07677)" d="M617.861 365.52C629.323 364.353 640.898 365.978 651.596 370.255C649.492 374.705 646.626 381.664 643.265 384.942C619.78 383.853 609.94 377.926 604.977 407.659C603.814 414.623 601.224 420.527 600.701 428.331C602.358 431.241 604.103 432.94 607.58 433.095C619.721 433.636 621.343 426.169 622.29 416.731C620.258 416.129 617.153 415.659 614.997 415.266C615.427 410.711 616.149 405.943 616.766 401.391C621.173 401.117 643.179 401.164 646.646 401.747L647.113 402.481L646.636 404.464C643.037 418.763 638.954 435.662 635.055 449.531C631.522 449.548 627.426 449.16 623.852 448.902C622.516 446.333 621.95 444.896 620.959 442.219C610.888 449.714 599.612 453.303 587.546 446.349C582.541 443.465 580.046 437.579 578.735 432.213C577.002 425.055 579.83 418.473 581.542 411.666C584.147 401.304 583.713 392.105 589.87 382.963C597.652 371.408 604.804 368.13 617.861 365.52Z"/><path fill="#020202" transform="scale(1.07563 1.07677)" d="M542.847 366.148C551.416 366.055 559.985 366.081 568.552 366.226C568.411 371.917 569.132 378.016 568.965 383.738C568.362 404.463 573.278 426.849 571.795 447.33C564.838 447.014 557.506 447.009 550.513 446.907C550.403 441.92 550.352 437.129 549.832 432.155C542.231 431.785 535.094 431.765 527.481 431.784L526.454 432.025C523.527 436.758 520.844 441.891 518.15 446.787C510.988 446.781 504.793 446.693 497.683 445.868C504.809 431.154 514.311 416.51 522.049 402.033C526.14 394.38 530.245 387.604 534.615 380.227C538.14 374.277 538.323 372.249 542.847 366.148ZM537.867 416.272C541.711 416.297 546.585 416.459 550.308 416.01C550.148 412.624 549.61 391.512 548.293 389.846C544.792 397.1 541.459 404.298 537.456 411.3C536.634 412.737 535.963 414.127 535.367 415.674C536.48 416.107 536.68 416.172 537.867 416.272Z"/><path fill="#020202" transform="scale(1.07563 1.07677)" d="M663.839 366.289C671.448 365.761 684.593 366.207 692.536 366.174C700.64 366.141 714.594 365.81 722.225 366.539C719.615 373.628 718.069 377.982 714.334 384.752C703.639 384.496 692.939 384.576 682.25 384.992C681.104 389.702 679.965 395.193 679.325 399.967C685.653 400.644 697.434 400.349 704.626 400.621C703.512 406.634 701.201 411.565 698.358 416.901C690.523 416.548 682.676 416.557 674.842 416.928C673.704 421.407 672.753 426.202 671.777 430.739C671.615 431.728 671.68 431.919 671.818 432.927C673.188 433.248 674.683 433.187 676.09 433.173C686.255 433.072 696.345 433.747 706.493 434.285C704.17 440.305 702.488 446.837 701.262 453.169C690.51 452.397 679.749 451.752 668.981 451.235C661.094 450.86 653.416 450.794 645.565 449.808C646.961 442.355 648.548 434.939 650.324 427.567C651.604 422.411 653.242 417.255 654.4 412.093C656.241 404.313 656.758 395.584 659.182 387.999C661.656 380.257 663.051 374.426 663.839 366.289Z"/><path fill="#020202" transform="scale(1.07563 1.07677)" d="M400.287 365.536C407.939 365.318 451.084 364.381 456.426 365.921C457.963 369.188 452.221 379.989 450.726 383.653C444.038 384.158 424.149 382.985 419.225 384.432C417.246 386.153 415.9 394.105 414.522 397.688C421.725 398.913 431.971 397.918 439.847 398.558C438.719 405.313 437.187 408.352 434.167 414.553C425.365 414.673 420.009 413.328 410.936 414.696C409.538 418.733 408.92 421.892 408.045 426.095C407.717 427.9 407.463 427.799 407.997 429.344C410.188 430.365 435.872 430.217 440.992 430.514C440.013 435.983 438.55 441.111 437.113 446.471C418.031 445.793 399.613 446.219 380.585 446.01C382.54 439.748 383.461 432.404 385.377 425.978C390.293 409.494 392.761 392.483 397.78 376.033C398.786 372.737 398.255 369.633 398.721 366.397C398.799 365.86 399.828 365.692 400.287 365.536Z"/><path fill="#020202" transform="scale(1.07563 1.07677)" d="M337.578 365.554C344.604 365.335 389.39 364.505 393.134 366.382C393.404 369.615 389.539 380.6 388.034 383.77C377.516 383.544 366.522 383.773 355.971 383.848C354.661 386.665 352.015 395.454 351.911 398.557C353.929 402.496 370.321 398.459 374.812 400.985C375.306 403.667 371.512 414.426 369.739 416.754L368.272 416.894C361.174 416.745 354.073 416.746 346.975 416.898C344.114 424.256 343.03 436.743 339.32 446.745L318.174 446.667C322.41 424.744 328.639 401.582 334.498 379.944C335.793 375.162 335.148 369.214 336.08 365.859L337.578 365.554Z"/><path fill="#020202" transform="scale(1.07563 1.07677)" d="M207.214 365.549C217.901 365.071 230.372 365.424 241.167 365.371C248.836 365.334 262.985 364.999 269.985 366.248C268.837 371.653 265.279 380.167 262.513 384.898C256.512 385.014 250.515 385.289 244.529 385.722C242.092 395.611 239.638 405.739 236.756 415.501C235.106 421.091 233.541 426.086 232.535 431.878C231.489 436.828 229.998 444.974 228.298 449.492C221.372 449.809 214.439 449.983 207.505 450.013C208.497 440.067 211.266 433.006 213.128 423.728C215.574 411.535 220.116 397.686 221.553 385.646C215.313 385.1 207.743 385.005 201.454 384.822C202.832 379.256 203.243 372.759 204.983 367.241C205.378 365.989 206.124 365.954 207.214 365.549Z"/><path fill="#020202" transform="scale(1.07563 1.07677)" d="M468.084 366.025C480.416 365.452 493.496 366.252 505.913 366.044C511.738 365.947 518.402 366.098 524.198 366.491C518.226 390.066 519.388 383.077 498.683 385.213C494.562 400.677 489.926 418.002 486.842 433.577C485.938 437.586 484.362 442.046 483.07 445.996C478.289 446.027 466.182 445.478 462.09 445.987C465.884 425.522 471.126 406.402 475.011 385.549C469.553 384.551 461.978 384.733 456.283 384.665C456.646 377.847 458.34 372.397 458.985 366.059L468.084 366.025Z"/><path fill="#020202" transform="scale(1.07563 1.07677)" d="M805.053 362.225C828.257 360.772 851.477 358.021 874.689 356.689C881.696 356.288 888.797 354.9 895.735 354.586C901.815 355.214 913.629 354.255 918.109 355.841C908.534 358.53 899.417 360.053 889.67 361.982C879.311 364.138 868.968 366.373 858.643 368.687C853.175 369.951 843.215 372.103 838.292 374.147C835.995 378.28 833.553 388.185 831.967 393.261C827.054 409.119 822.29 425.024 817.674 440.971C815.433 448.434 812.495 459.202 809.572 466.186C806.977 465.93 804.389 465.598 801.813 465.19C802.486 457.656 804.561 450.249 805.391 442.83C808.278 417.029 815.459 390.51 816.004 364.67C812.362 363.734 808.961 363.299 805.053 362.225Z"/><path fill="#020202" transform="scale(1.07563 1.07677)" d="M265.732 255.416C264.841 259.817 264.026 264.25 262.507 268.484C245.729 271.058 226.475 270.751 209.219 272.096L71.206 282.284L71.1136 282.116C71.2032 281.189 71.1481 281.203 70.7619 280.396C93.5364 276.008 118.062 274.708 141.06 270.944C163.94 267.2 187.072 264.647 210.056 261.653C227.489 259.429 248.201 255.766 265.732 255.416Z"/><path fill="#020202" transform="scale(1.07563 1.07677)" d="M492.317 310.265C496.454 309.973 500.605 309.921 504.748 310.112C503.555 314.008 502.746 316.565 501.117 320.275C490.84 321.415 475.648 321.081 464.768 321.739C433.197 323.649 401.107 324.275 369.592 326.167C365.391 326.359 361.935 326.416 357.731 326.327C357.965 323.055 357.595 318.339 358.675 315.372C359.976 314.694 362.203 314.516 363.698 314.456C406.42 312.732 449.656 312.886 492.317 310.265Z"/><path fill="#020202" transform="scale(1.07563 1.07677)" d="M248.567 319.498C253.276 319.251 257.995 319.24 262.706 319.465C262.346 323.339 261.888 326.083 261.161 329.916C256.039 330.618 249.97 330.63 244.742 330.845L213.129 331.89C188.603 332.666 164.083 333.597 139.569 334.683L122.902 335.082C127.484 333.458 148.74 324.052 151.629 323.861C181.124 321.907 219.657 321.233 248.567 319.498Z"/><path fill="#020202" transform="scale(1.07563 1.07677)" d="M111.465 253.301L211.913 240.014C233.184 237.127 254.405 233.216 275.84 231.433C272.742 235.957 271.464 240.239 268.854 244.307C255.198 246.387 235.893 247.009 221.829 247.754L162.382 251.092C146.435 251.869 128.026 254.385 112.461 254.751L111.465 253.301Z"/><path fill="#020202" transform="scale(1.07563 1.07677)" d="M16.4737 351.835C38.8362 354.353 64.1363 354.411 86.8292 355.146L86.5802 355.846C84.8612 355.995 83.7261 356.129 82.033 356.449L73.1996 356.716C69.5683 368.926 65.2801 390.152 62.3824 402.724C60.3094 411.717 47.5724 457.607 48.2297 464.582C45.6238 465.288 42.2554 465.817 39.551 466.319C45.3755 434.439 57.7487 400.651 63.4814 368.658C57.9314 365.143 44.2823 361.105 37.4932 358.909C30.4722 356.594 23.4656 354.236 16.4737 351.835Z"/><path fill="#020202" transform="scale(1.07563 1.07677)" d="M683.489 311.517C697.008 310.284 705.056 319.836 700.277 333.492C698.75 337.857 693.496 341.671 689.127 343.257C667.898 347.898 663.469 318.176 683.489 311.517Z"/><path fill="#020202" transform="scale(1.07563 1.07677)" d="M217.863 291.606C220.134 291.403 220.272 291.025 222.019 291.888C224.5 295.599 219.871 301.613 215.929 301.685C181.641 302.317 148.3 303.97 114.002 301.717C110.48 301.594 107.735 301.266 104.23 300.824C140.907 298.141 181.484 295.555 217.863 291.606Z"/><path fill="#020202" transform="scale(1.07563 1.07677)" d="M331.531 312.46C336.423 312.316 340.767 314.679 342.01 319.649C342.914 323.411 342.269 327.378 340.221 330.661C337.561 335.008 334.109 337.083 329.319 338.281C310.816 338.695 316.143 315.664 331.531 312.46Z"/><path fill="#020202" transform="scale(1.07563 1.07677)" d="M291.143 313.335C307.367 311.704 306.674 334.439 289.378 338.678C272.869 340.016 274.798 318.951 291.143 313.335Z"/><path fill="#020202" transform="scale(1.07563 1.07677)" d="M541.695 331.541C553.612 330.346 578.688 331.679 591.497 331.808C603.289 331.927 631.396 330.468 641.663 332.282L642.238 333.143C642.006 334.652 641.71 334.905 640.747 336.051L638.81 336.185C626.2 336.688 612.661 336.135 599.916 336.05L536.561 335.901C538.46 333.979 539.345 332.974 541.695 331.541Z"/><path fill="#020202" transform="scale(1.07563 1.07677)" d="M626.496 323.745C631.572 323.208 639.203 323.475 644.447 323.536C643.978 324.955 643.507 326.938 643.106 328.425C633.656 329.028 621.261 328.656 611.545 328.63L560.95 328.722C555.362 328.823 550.686 328.548 545.142 328.008L548.766 324.561C555.425 323.52 568.672 324.287 575.844 324.156C592.469 323.854 609.946 324.436 626.496 323.745Z"/><defs><linearGradient id="gradient_0" gradientUnits="userSpaceOnUse" x1="869.67072" y1="342.82584" x2="811.81311" y2="331.31763"><stop offset="0" stop-color="#373738"/><stop offset="1" stop-color="#5A5859"/></linearGradient></defs><path fill="url(#gradient_0)" transform="scale(1.07563 1.07677)" d="M808.708 333.507C824.464 334.57 841.17 334.31 856.992 335.265C862.144 335.576 871.593 335.579 876.371 336.332C872.056 338.732 872.647 334.432 870.34 340.215C871.475 340.897 874.21 341.103 876.521 342.026C870.61 342.122 860.115 341.309 853.921 341.052L806.511 339.143L806.636 338.544C807.903 337.942 809.657 338.473 811.62 338.348L811.953 337.899C811.806 336.393 811.668 336.194 810.903 334.875C809.395 334.401 808.397 334.274 806.844 334.036L808.708 333.507Z"/><path fill="#020202" transform="scale(1.07563 1.07677)" d="M569.569 305.509L622.05 305.295C629.56 305.287 642.855 304.87 649.986 305.524L650.297 306.488C648.844 309.819 649.627 309.428 646.249 309.679C624.113 310.051 601.736 309.49 579.576 309.689C575.163 309.728 569.685 309.32 565.374 309.873C566.668 308.366 568.161 306.921 569.569 305.509Z"/><path fill="#383738" transform="scale(1.07563 1.07677)" d="M771.368 330.95C782.713 333.199 797.175 332.235 808.708 333.507L806.844 334.036C808.397 334.274 809.395 334.401 810.903 334.875C811.668 336.194 811.806 336.393 811.953 337.899L811.62 338.348C809.657 338.473 807.903 337.942 806.636 338.544L806.511 339.143C791.835 338.773 777.163 338.274 762.496 337.646C763.619 337.548 763.756 337.603 764.572 336.908C764.491 335.729 764.474 335.665 764.808 334.548C767.385 332.198 768.138 335.518 771.368 330.95Z"/><path fill="#383738" transform="scale(1.07563 1.07677)" d="M45.321 407.61L46.7203 407.864C44.2749 420.173 41.6115 432.437 38.7314 444.651C37.7002 449.203 35.9201 455.727 35.169 460.05L34.6901 459.442C33.1937 458.813 31.0459 459.071 29.365 459.142C35.0623 442.149 39.6223 424.691 45.321 407.61Z"/><path fill="#383738" transform="scale(1.07563 1.07677)" d="M824.193 445.768C827.557 432.139 834.384 410.815 839.212 397.229L839.528 397.14C837.528 408.612 835.118 420.418 832.646 431.796C831.806 435.66 830.648 443.382 829.566 446.833C828.861 445.255 829.213 443.949 829.447 442.223C828.696 440.751 829.143 441.129 827.852 440.578C825.377 441.385 826.235 444.396 824.193 445.768Z"/><path fill="#020202" fill-opacity="0.97647059" transform="scale(1.07563 1.07677)" d="M685.886 295.745C693.866 294.353 705.43 299.906 710.632 306.015C710.028 306.262 707.117 303.708 706.234 303.071C699.133 297.956 694.048 297.008 685.761 297.997C679.468 299.011 673.962 302.103 668.475 305.37C666.615 306.478 665.477 310.03 662.937 310.36L662.685 309.857C662.849 309.579 663.341 308.784 663.565 308.553C670.932 300.996 675.351 296.998 685.886 295.745Z"/><path fill="#020202" fill-opacity="0.97647059" transform="scale(1.07563 1.07677)" d="M70.7619 280.396C71.1481 281.203 71.2032 281.189 71.1136 282.116L71.206 282.284C67.9789 283.304 40.8453 285.061 37.0548 285L36.9729 284.787C48.119 282.885 59.9101 282.273 70.7619 280.396Z"/><path fill="#020202" fill-opacity="0.98823529" transform="scale(1.07563 1.07677)" d="M627.593 315.976C632.055 315.392 641.19 314.16 645.404 315.877L645.515 316.51C642.304 318.266 630.372 317.468 626.627 316.979L627.593 315.976Z"/><path fill="#020202" fill-opacity="0.95686275" transform="scale(1.07563 1.07677)" d="M516.225 189.298C516.759 189.188 517.347 189.203 517.902 189.184C517.323 190.231 513.63 191.478 512.834 192.225C511.067 193.885 511.706 195.287 509.379 196.403L509.068 193.574L508.96 193.117C507.416 192.323 504.508 192.234 502.677 192.063C507.449 191.203 511.199 189.931 516.225 189.298Z"/><path fill="#020202" fill-opacity="0.9254902" transform="scale(1.07563 1.07677)" d="M928.945 353.002C925.681 354.418 921.658 355.025 918.109 355.841C913.629 354.255 901.815 355.214 895.735 354.586C905.604 353.108 917.054 354.926 928.945 353.002Z"/><path fill="#020202" fill-opacity="0.9254902" transform="scale(1.07563 1.07677)" d="M112.461 254.751C106.919 255.204 102.004 255.585 96.4295 255.698L96.1769 255.266L95.4159 255.521L95.6088 255.626C96.6758 254.725 108.97 253.647 111.465 253.301L112.461 254.751Z"/><path fill="#020202" fill-opacity="0.98039216" transform="scale(1.07563 1.07677)" d="M86.8292 355.146C88.4754 355.129 98.8853 355.235 99.7406 355.902L100.436 355.885C100.708 355.948 84.1462 356.549 82.033 356.449C83.7261 356.129 84.8612 355.995 86.5802 355.846L86.8292 355.146Z"/><path fill="#020202" fill-opacity="0.93725491" transform="scale(1.07563 1.07677)" d="M45.321 407.61C46.1867 404.474 47.4623 399.178 48.8781 396.466L48.6793 396.687L49.0745 396.88C48.2677 400.536 47.483 404.198 46.7203 407.864L45.321 407.61Z"/><path fill="#383738" fill-opacity="0.24705882" transform="scale(1.07563 1.07677)" d="M244.946 285.575C249.074 285.198 253.542 285.121 257.71 284.973L260.243 285.59C258.319 285.657 249.955 286.461 248.93 286.271C247.586 285.712 246.385 285.694 244.946 285.575Z"/><path fill="#120E13" fill-opacity="0.35686275" transform="scale(1.07563 1.07677)" d="M248.93 286.271C246.048 286.812 241.591 286.968 238.681 286.422L244.946 285.575C246.385 285.694 247.586 285.712 248.93 286.271Z"/><path fill="#120E13" fill-opacity="0.43137255" transform="scale(1.07563 1.07677)" d="M257.71 284.973C261.795 284.417 263.97 284.283 268.156 284.527C264.932 285.214 263.536 285.396 260.243 285.59L257.71 284.973Z"/><path fill="#120E13" fill-opacity="0.87843138" transform="scale(1.07563 1.07677)" d="M269.148 297.016C271.923 296.331 273.484 296.099 276.28 295.753L276.58 296.349L280.43 296.577C277.031 297.11 272.673 297.001 269.148 297.016Z"/><path fill="#120E13" fill-opacity="0.77254903" transform="scale(1.07563 1.07677)" d="M626.627 316.979C625.178 316.974 623.96 317.077 622.629 316.479C623.953 315.776 626.019 315.963 627.593 315.976L626.627 316.979Z"/></svg>